IKResults
version=1
nRows=13
nColumns=40
inDegrees=yes

Units are S.I. units (second, meters, Newtons, ...)
Angles are in degrees.

endheader
time	pelvis_tilt	pelvis_list	pelvis_rotation	pelvis_tx	pelvis_ty	pelvis_tz	hip_flexion_r	hip_adduction_r	hip_rotation_r	knee_angle_r	knee_angle_r_beta	ankle_angle_r	subtalar_angle_r	mtp_angle_r	hip_flexion_l	hip_adduction_l	hip_rotation_l	knee_angle_l	knee_angle_l_beta	ankle_angle_l	subtalar_angle_l	mtp_angle_l	lumbar_extension	lumbar_bending	lumbar_rotation	arm_flex_r	arm_add_r	arm_rot_r	elbow_flex_r	pro_sup_r	wrist_flex_r	wrist_dev_r	arm_flex_l	arm_add_l	arm_rot_l	elbow_flex_l	pro_sup_l	wrist_flex_l	wrist_dev_l
      1.70000000	     18.04157371	      1.29233391	      3.37235428	      0.58754036	      0.94840454	      1.02562699	    -22.20949793	      1.89514169	     -8.97625486	    -15.29865238	     -0.26701186	     11.39876391	     -5.27866527	      0.86001903	      1.06538729	      0.49109138	      5.13306495	    -35.98964180	     -0.62813775	     12.52480243	     17.16388915	      7.23311221	    -23.54558606	     -2.99931734	     -0.21842239	     -5.16478901	    -12.48827471	      1.01004955	     48.40006604	     89.95437384	      0.00000000	      0.00000000	     -0.95641015	      6.86750217	     27.00666113	     12.40193941	     89.95437384	      0.00000000	      0.00000000
      1.71000000	     17.91599554	      1.48086138	      3.13402128	      0.59624102	      0.94736917	      1.02536886	    -22.72615826	      1.64600158	     -8.69770291	    -15.20919479	     -0.26545053	     11.73563995	     -5.52660508	      0.94900866	      1.66312893	      0.40603714	      5.99136492	    -33.66567702	     -0.58757691	     12.23667451	     16.37906530	      6.16266693	    -23.45502465	     -3.32321068	      0.03771636	     -4.99029140	    -12.62854597	      0.75126764	     49.64302976	     89.95437384	      0.00000000	      0.00000000	     -2.05098683	      6.98928755	     26.53017932	     12.57853656	     89.95437384	      0.00000000	      0.00000000
      1.72000000	     17.30055920	      1.30682020	      3.22136611	      0.60459979	      0.94535336	      1.02492006	    -22.53047746	      1.81169571	     -8.86692165	    -15.38789726	     -0.26856947	     12.11685992	     -5.50976088	      0.89570054	      3.07544805	      0.75044303	      6.97133641	    -31.66612827	     -0.55267820	     12.28627994	     15.54133284	      5.88721480	    -22.84111966	     -3.21690367	      0.07877041	     -4.76206448	    -12.80465286	      0.71176333	     50.74377175	     89.95437384	      0.00000000	      0.00000000	     -3.08692184	      7.08358067	     26.41760484	     12.64336276	     89.95437384	      0.00000000	      0.00000000
      1.73000000	     17.65634534	      1.68666306	      2.64677990	      0.61376097	      0.94498360	      1.02485488	    -23.69718744	      1.25431705	     -8.33898796	    -15.13397771	     -0.26413774	     12.43627583	     -5.50145345	      0.90426958	      2.76978124	      0.55986830	      8.70527373	    -28.87268268	     -0.50392338	     11.91664761	     13.88881306	      5.03399969	    -23.23678616	     -3.80146829	      0.58250744	     -4.65420599	    -12.95563958	      0.46216904	     51.99028503	     89.95437384	      0.00000000	      0.00000000	     -4.03572382	      7.17851619	     26.26847311	     12.68145040	     89.95437384	      0.00000000	      0.00000000
      1.74000000	     17.56525259	      1.76776834	      2.44091961	      0.62250106	      0.94380482	      1.02444092	    -24.19773443	      1.07323233	     -8.22630509	    -15.17426357	     -0.26484086	     12.72529252	     -5.57559013	      0.91598601	      3.19762641	      0.65248762	     10.09326803	    -26.48722998	     -0.46228937	     11.60056904	     12.24673024	      4.19336523	    -23.17365102	     -4.00855072	      0.82422588	     -4.47620529	    -13.06239908	      0.25368555	     53.04619753	     89.95437384	      0.00000000	      0.00000000	     -4.99316316	      7.25188547	     26.26763140	     12.80243267	     89.95437384	      0.00000000	      0.00000000
      1.75000000	     17.52526309	      1.68486324	      2.10506163	      0.63152717	      0.94259083	      1.02429733	    -24.81626519	      1.08347997	     -7.64212761	    -15.03348813	     -0.26238387	     12.79438396	     -6.02621516	      1.53936743	      3.60675797	      1.14385273	     12.50189562	    -24.29390867	     -0.42400869	     10.50208052	     10.85679480	     -5.96176409	    -23.10891456	     -4.08889072	      1.26243422	     -4.38271649	    -13.24174852	      0.14876106	     54.11565743	     89.95437384	      0.00000000	      0.00000000	     -5.94745866	      7.28419159	     26.51768272	     12.97104720	     89.95437384	      0.00000000	      0.00000000
      1.76000000	     17.53204591	      1.87560929	      1.78847762	      0.64061387	      0.94144262	      1.02362137	    -25.44594935	      0.71141491	     -7.60565811	    -15.01189167	     -0.26200694	     13.02572114	     -5.92273389	      1.49538783	      3.76789135	      1.07285949	     14.32523563	    -21.96857536	     -0.38342397	     10.11055156	      9.05700842	     -6.15686858	    -23.11819896	     -4.40393588	      1.57361251	     -4.28343329	    -13.41179155	      0.02915313	     55.10797512	     89.95437384	      0.00000000	      0.00000000	     -6.72774456	      7.30511751	     27.03477624	     12.87634767	     89.95437384	      0.00000000	      0.00000000
      1.77000000	     17.53664765	      2.00140482	      1.43549048	      0.64985388	      0.94021544	      1.02287207	    -25.99234076	      0.35082836	     -7.55041908	    -15.20382396	     -0.26535679	     13.29793792	     -5.67545721	      1.41291323	      3.96777431	      1.07456590	     16.34629544	    -19.93987780	     -0.34801652	      9.70194589	      7.12186170	     -6.52332986	    -23.09684772	     -4.65897186	      1.91036220	     -4.19874696	    -13.56992873	     -0.06334306	     56.02001161	     89.95437384	      0.00000000	      0.00000000	     -7.50676878	      7.28976514	     27.83584310	     12.84495438	     89.95437384	      0.00000000	      0.00000000
      1.78000000	     17.59121313	      2.13623204	      1.05536665	      0.65933910	      0.93902206	      1.02186407	    -26.62289051	     -0.05494365	     -7.45937707	    -15.35154250	     -0.26793496	     13.40938028	     -5.42872926	      1.42312045	      4.07836854	      0.99484154	     18.30771611	    -18.08274998	     -0.31560352	      9.25323254	      5.28033692	     -6.96599854	    -23.09639127	     -4.89314997	      2.27260433	     -4.15754166	    -13.78060354	     -0.12014325	     56.88003191	     89.95437384	      0.00000000	      0.00000000	     -8.20113066	      7.22096733	     28.75781367	     12.66358369	     89.95437384	      0.00000000	      0.00000000
      1.79000000	     17.56325489	      2.17950180	      0.73997571	      0.66881622	      0.93758603	      1.02094568	    -27.06343428	     -0.37302457	     -7.57801117	    -15.69660033	     -0.27395736	     13.79545029	     -4.78030266	      1.18963070	      4.52881998	      1.21624814	     20.78416273	    -17.00634540	     -0.29681672	      8.80352520	      2.15766542	     -7.58956525	    -23.00899183	     -5.04780931	      2.61066706	     -4.13534611	    -13.96095914	     -0.14257454	     57.66417437	     89.95437384	      0.00000000	      0.00000000	     -8.82645716	      7.18271717	     29.76739845	     12.44263159	     89.95437384	      0.00000000	      0.00000000
      1.80000000	     17.49878369	      2.39070741	      0.43275499	      0.67815802	      0.93623503	      1.01976232	    -27.45668465	     -0.85069633	     -7.47067425	    -16.04921944	     -0.28011172	     13.94897354	     -4.74566836	      1.06481197	      4.82789788	      0.95244816	     22.15951575	    -15.73449807	     -0.27461880	      8.49808080	      0.82254310	     -7.83454948	    -22.90852915	     -5.37526055	      2.85165793	     -4.03671289	    -14.08758819	     -0.13832619	     58.25370705	     89.95437384	      0.00000000	      0.00000000	     -9.41374467	      7.16929633	     30.60439825	     12.29246307	     89.95437384	      0.00000000	      0.00000000
      1.81000000	     17.42948751	      2.57625327	      0.15523017	      0.68761150	      0.93485242	      1.01846183	    -27.78601781	     -1.32451105	     -7.46957779	    -16.50109368	     -0.28799841	     14.16733864	     -4.52090733	      0.87622336	      5.12246495	      0.72089706	     23.40635401	    -14.75794564	     -0.25757474	      8.33482745	     -0.62860671	     -8.09460493	    -22.77814519	     -5.64844219	      3.13647237	     -4.01701448	    -14.19507333	     -0.18585604	     58.77937309	     89.95437384	      0.00000000	      0.00000000	     -9.84233527	      7.17018532	     31.41946330	     11.93216487	     89.95437384	      0.00000000	      0.00000000
      1.82000000	     17.21959300	      2.54350006	      0.26383682	      0.69690938	      0.93330083	      1.01700162	    -28.02373217	     -1.35768276	     -7.42483102	    -16.87539493	     -0.29453120	     14.07193455	     -4.46553529	      0.84654931	      5.81959250	      0.73388010	     23.53758577	    -14.57312825	     -0.25434907	      8.34238514	     -0.66590289	     -8.01679313	    -22.55355121	     -5.60559840	      3.04924173	     -3.90679762	    -14.17094254	     -0.21533278	     59.10972960	     89.95437384	      0.00000000	      0.00000000	    -10.43108163	      7.23100468	     31.41475754	     11.79070511	     89.95437384	      0.00000000	      0.00000000
